<svg width="307" height="610" viewBox="0 0 307 610" fill="none" xmlns="http://www.w3.org/2000/svg">
<path d="M46.8431 93.6859C72.6897 93.6859 93.686 72.6895 93.686 46.843C93.686 20.9964 72.6897 0 46.8431 0C20.9965 0 9.91821e-05 20.9964 9.91821e-05 46.843C-0.0637207 72.6895 20.9965 93.6859 46.8431 93.6859ZM46.8431 2.55275C71.2856 2.55275 91.1333 22.4004 91.1333 46.843C91.1333 71.2855 71.2856 91.1332 46.8431 91.1332C22.4005 91.1332 2.55285 71.2855 2.55285 46.843C2.48903 22.4642 22.4005 2.55275 46.8431 2.55275Z" fill="#F13F00"/>
<path d="M46.8504 6.53823C69.1257 6.53823 87.1834 24.596 87.1834 46.8713C87.1834 69.1466 69.1257 87.2043 46.8504 87.2043C24.5751 87.2043 6.51733 69.1466 6.51733 46.8713C6.51733 24.596 24.5751 6.53823 46.8504 6.53823Z" fill="#F13F00"/>
<path opacity="0.5" d="M46.8504 6.53823C69.1257 6.53823 87.1834 24.596 87.1834 46.8713C87.1834 69.1466 69.1257 87.2043 46.8504 87.2043C24.5751 87.2043 6.51733 69.1466 6.51733 46.8713C6.51733 24.596 24.5751 6.53823 46.8504 6.53823Z" fill="white"/>
<path d="M46.8431 93.6859C72.6897 93.6859 93.686 72.6895 93.686 46.843C93.686 20.9964 72.6897 0 46.8431 0C20.9965 0 9.91821e-05 20.9964 9.91821e-05 46.843C-0.0637207 72.6895 20.9965 93.6859 46.8431 93.6859ZM46.8431 2.55275C71.2856 2.55275 91.1333 22.4004 91.1333 46.843C91.1333 71.2855 71.2856 91.1332 46.8431 91.1332C22.4005 91.1332 2.55285 71.2855 2.55285 46.843C2.48903 22.4642 22.4005 2.55275 46.8431 2.55275Z" fill="#F13F00"/>
<path d="M46.8504 6.53823C69.1257 6.53823 87.1834 24.596 87.1834 46.8713C87.1834 69.1466 69.1257 87.2043 46.8504 87.2043C24.5751 87.2043 6.51733 69.1466 6.51733 46.8713C6.51733 24.596 24.5751 6.53823 46.8504 6.53823Z" fill="#F13F00"/>
<path opacity="0.5" d="M46.8504 6.53823C69.1257 6.53823 87.1834 24.596 87.1834 46.8713C87.1834 69.1466 69.1257 87.2043 46.8504 87.2043C24.5751 87.2043 6.51733 69.1466 6.51733 46.8713C6.51733 24.596 24.5751 6.53823 46.8504 6.53823Z" fill="white"/>
<path d="M302 180V46H93" stroke="#F13F00" stroke-width="5" stroke-dasharray="4 4"/>
<path d="M307 185C307 187.609 304.826 190 302 190C299.174 190 297 187.826 297 185C297 182.391 299.174 180 302 180C304.826 180 307 182.391 307 185Z" fill="#F13F00"/>
<path d="M46.5 92.5L47 601.5" stroke="#F13F00" stroke-width="5" stroke-linejoin="round" stroke-dasharray="4 4"/>
<path d="M52 605C52 607.609 49.8261 610 47 610C44.174 610 42 607.826 42 605C42 602.391 44.174 600 47 600C49.8261 600 52 602.391 52 605Z" fill="#F13F00"/>
</svg>
