<svg width="309" height="712" viewBox="0 0 309 712" fill="none" xmlns="http://www.w3.org/2000/svg">
<path d="M51 5C51 7.60869 48.8261 10 46 10C43.174 10 41 7.82608 41 5C41 2.39131 43.174 0 46 0C48.8261 0 51 2.39131 51 5Z" fill="#F13F00"/>
<path d="M46 10V712" stroke="#F13F00" stroke-width="5" stroke-linejoin="round" stroke-dasharray="4 4"/>
<path d="M46.8431 265.686C72.6897 265.686 93.686 244.69 93.686 218.843C93.686 192.996 72.6897 172 46.8431 172C20.9965 172 9.91821e-05 192.996 9.91821e-05 218.843C-0.0637207 244.69 20.9965 265.686 46.8431 265.686ZM46.8431 174.553C71.2856 174.553 91.1333 194.4 91.1333 218.843C91.1333 243.286 71.2856 263.133 46.8431 263.133C22.4005 263.133 2.55285 243.286 2.55285 218.843C2.48903 194.464 22.4005 174.553 46.8431 174.553Z" fill="#F13F00"/>
<path d="M46.8504 178.538C69.1257 178.538 87.1834 196.596 87.1834 218.871C87.1834 241.147 69.1257 259.204 46.8504 259.204C24.5751 259.204 6.51733 241.147 6.51733 218.871C6.51733 196.596 24.5751 178.538 46.8504 178.538Z" fill="#F13F00"/>
<path opacity="0.5" d="M46.8504 178.538C69.1257 178.538 87.1834 196.596 87.1834 218.871C87.1834 241.147 69.1257 259.204 46.8504 259.204C24.5751 259.204 6.51733 241.147 6.51733 218.871C6.51733 196.596 24.5751 178.538 46.8504 178.538Z" fill="white"/>
<path d="M304 354V218H94" stroke="#F13F00" stroke-width="5" stroke-dasharray="4 4"/>
<path d="M308.686 352C308.686 354.609 306.512 357 303.686 357C300.86 357 298.686 354.826 298.686 352C298.686 349.391 300.86 347 303.686 347C306.512 347 308.686 349.391 308.686 352Z" fill="#F13F00"/>
</svg>
