<svg width="39" height="620" viewBox="0 0 39 620" fill="none" xmlns="http://www.w3.org/2000/svg">
<path d="M19 609.431L19 38.4314" stroke="#F13F00" stroke-width="2" stroke-dasharray="3.15 3.15"/>
<path d="M23 616C23 618.087 21.2609 620 19 620C16.7392 620 15 618.261 15 616C15 613.913 16.7392 612 19 612C21.2609 612 23 613.913 23 616Z" fill="#F13F00"/>
<path d="M23 219.431C23 221.518 21.2609 223.431 19 223.431C16.7392 223.431 15 221.692 15 219.431C15 217.344 16.7392 215.431 19 215.431C21.2609 215.431 23 217.344 23 219.431Z" fill="#F13F00"/>
<path d="M19.0358 2.65668C28.0865 2.65668 35.4236 9.99378 35.4236 19.0445C35.4236 28.0953 28.0865 35.4324 19.0358 35.4324C9.98504 35.4324 2.64795 28.0953 2.64795 19.0445C2.64795 9.99378 9.98504 2.65668 19.0358 2.65668Z" fill="#F13F00"/>
<path opacity="0.5" d="M19.0358 2.65668C28.0865 2.65668 35.4236 9.99377 35.4236 19.0445C35.4236 28.0953 28.0865 35.4324 19.0358 35.4324C9.98504 35.4324 2.64795 28.0953 2.64795 19.0445C2.64795 9.99377 9.98504 2.65668 19.0358 2.65668Z" fill="white"/>
<path d="M19.033 38.0658C29.5348 38.0658 38.0659 29.5347 38.0659 19.0329C38.0659 8.53109 29.5348 0 19.033 0C8.53121 0 0.000110626 8.53109 0.000110626 19.0329C-0.0258179 29.5347 8.53121 38.0658 19.033 38.0658ZM19.033 1.03722C28.9643 1.03722 37.0287 9.10156 37.0287 19.0329C37.0287 28.9642 28.9643 37.0286 19.033 37.0286C9.10168 37.0286 1.03733 28.9642 1.03733 19.0329C1.01139 9.12749 9.10168 1.03722 19.033 1.03722Z" fill="#F13F00"/>
</svg>
