<svg width="39" height="495" viewBox="0 0 39 495" fill="none" xmlns="http://www.w3.org/2000/svg">
<path d="M19 495L19 37" stroke="#F13F00" stroke-width="2" stroke-dasharray="3.15 3.15"/>
<path d="M23 225C23 227.087 21.2609 229 19 229C16.7392 229 15 227.261 15 225C15 222.913 16.7392 221 19 221C21.2609 221 23 222.913 23 225Z" fill="#F13F00"/>
<path d="M23 491C23 493.087 21.2609 495 19 495C16.7392 495 15 493.261 15 491C15 488.913 16.7392 487 19 487C21.2609 487 23 488.913 23 491Z" fill="#F13F00"/>
<path d="M19.033 38.0658C29.5348 38.0658 38.0659 29.5347 38.0659 19.0329C38.0659 8.53109 29.5348 0 19.033 0C8.53121 0 0.000110626 8.53109 0.000110626 19.0329C-0.0258179 29.5347 8.53121 38.0658 19.033 38.0658ZM19.033 1.03722C28.9643 1.03722 37.0287 9.10156 37.0287 19.0329C37.0287 28.9642 28.9643 37.0286 19.033 37.0286C9.10168 37.0286 1.03733 28.9642 1.03733 19.0329C1.01139 9.12749 9.10168 1.03722 19.033 1.03722Z" fill="#F13F00"/>
<path d="M19.0358 2.65662C28.0865 2.65662 35.4236 9.99371 35.4236 19.0445C35.4236 28.0952 28.0865 35.4323 19.0358 35.4323C9.98504 35.4323 2.64795 28.0952 2.64795 19.0445C2.64795 9.99371 9.98504 2.65662 19.0358 2.65662Z" fill="#F13F00"/>
<path opacity="0.5" d="M19.0358 2.65662C28.0865 2.65662 35.4236 9.99371 35.4236 19.0445C35.4236 28.0952 28.0865 35.4323 19.0358 35.4323C9.98504 35.4323 2.64795 28.0952 2.64795 19.0445C2.64795 9.99371 9.98504 2.65662 19.0358 2.65662Z" fill="white"/>
</svg>
