<svg width="94" height="161" viewBox="0 0 94 161" fill="none" xmlns="http://www.w3.org/2000/svg">
<path d="M52 156C52 158.609 49.8261 161 47 161C44.174 161 42 158.826 42 156C42 153.391 44.174 151 47 151C49.8261 151 52 153.391 52 156Z" fill="#F13F00"/>
<path d="M52 5C52 7.60869 49.8261 10 47 10C44.174 10 42 7.82608 42 5C42 2.39131 44.174 0 47 0C49.8261 0 52 2.39131 52 5Z" fill="#F13F00"/>
<path d="M47 159L47 2" stroke="#F13F00" stroke-width="5" stroke-dasharray="4 4"/>
<path d="M46.8431 124.686C72.6897 124.686 93.686 103.69 93.686 77.843C93.686 51.9964 72.6897 31 46.8431 31C20.9965 31 9.91821e-05 51.9964 9.91821e-05 77.843C-0.0637207 103.69 20.9965 124.686 46.8431 124.686ZM46.8431 33.5527C71.2856 33.5527 91.1333 53.4004 91.1333 77.843C91.1333 102.286 71.2856 122.133 46.8431 122.133C22.4005 122.133 2.55285 102.286 2.55285 77.843C2.48903 53.4642 22.4005 33.5527 46.8431 33.5527Z" fill="#F13F00"/>
<path d="M46.8504 37.5385C69.1257 37.5385 87.1834 55.5962 87.1834 77.8715C87.1834 100.147 69.1257 118.205 46.8504 118.205C24.5751 118.205 6.51733 100.147 6.51733 77.8715C6.51733 55.5962 24.5751 37.5385 46.8504 37.5385Z" fill="#F13F00"/>
<path opacity="0.5" d="M46.8504 37.5385C69.1257 37.5385 87.1834 55.5962 87.1834 77.8715C87.1834 100.147 69.1257 118.205 46.8504 118.205C24.5751 118.205 6.51733 100.147 6.51733 77.8715C6.51733 55.5962 24.5751 37.5385 46.8504 37.5385Z" fill="white"/>
</svg>
