<svg width="307" height="308" viewBox="0 0 307 308" fill="none" xmlns="http://www.w3.org/2000/svg">
<path d="M46.8431 255.686C72.6897 255.686 93.686 234.69 93.686 208.843C93.686 182.996 72.6897 162 46.8431 162C20.9965 162 9.91821e-05 182.996 9.91821e-05 208.843C-0.0637207 234.69 20.9965 255.686 46.8431 255.686ZM46.8431 164.553C71.2856 164.553 91.1333 184.4 91.1333 208.843C91.1333 233.286 71.2856 253.133 46.8431 253.133C22.4005 253.133 2.55285 233.286 2.55285 208.843C2.48903 184.464 22.4005 164.553 46.8431 164.553Z" fill="#F13F00"/>
<path d="M46.8504 168.538C69.1257 168.538 87.1834 186.596 87.1834 208.872C87.1834 231.147 69.1257 249.205 46.8504 249.205C24.5751 249.205 6.51733 231.147 6.51733 208.872C6.51733 186.596 24.5751 168.538 46.8504 168.538Z" fill="#F13F00"/>
<path opacity="0.5" d="M46.8504 168.538C69.1257 168.538 87.1834 186.596 87.1834 208.872C87.1834 231.147 69.1257 249.205 46.8504 249.205C24.5751 249.205 6.51733 231.147 6.51733 208.872C6.51733 186.596 24.5751 168.538 46.8504 168.538Z" fill="white"/>
<path d="M46.8431 255.686C72.6897 255.686 93.686 234.69 93.686 208.843C93.686 182.996 72.6897 162 46.8431 162C20.9965 162 9.91821e-05 182.996 9.91821e-05 208.843C-0.0637207 234.69 20.9965 255.686 46.8431 255.686ZM46.8431 164.553C71.2856 164.553 91.1333 184.4 91.1333 208.843C91.1333 233.286 71.2856 253.133 46.8431 253.133C22.4005 253.133 2.55285 233.286 2.55285 208.843C2.48903 184.464 22.4005 164.553 46.8431 164.553Z" fill="#F13F00"/>
<path d="M46.8504 168.538C69.1257 168.538 87.1834 186.596 87.1834 208.872C87.1834 231.147 69.1257 249.205 46.8504 249.205C24.5751 249.205 6.51733 231.147 6.51733 208.872C6.51733 186.596 24.5751 168.538 46.8504 168.538Z" fill="#F13F00"/>
<path opacity="0.5" d="M46.8504 168.538C69.1257 168.538 87.1834 186.596 87.1834 208.872C87.1834 231.147 69.1257 249.205 46.8504 249.205C24.5751 249.205 6.51733 231.147 6.51733 208.872C6.51733 186.596 24.5751 168.538 46.8504 168.538Z" fill="white"/>
<path d="M302 301V208H93" stroke="#F13F00" stroke-width="5" stroke-dasharray="4 4"/>
<path d="M306.686 303C306.686 305.609 304.512 308 301.686 308C298.86 308 296.686 305.826 296.686 303C296.686 300.391 298.86 298 301.686 298C304.512 298 306.686 300.391 306.686 303Z" fill="#F13F00"/>
<path d="M46.5 162V5" stroke="#F13F00" stroke-width="5" stroke-linejoin="round" stroke-dasharray="4 4"/>
<path d="M52 5C52 7.60869 49.8261 10 47 10C44.174 10 42 7.82608 42 5C42 2.39131 44.174 0 47 0C49.8261 0 52 2.39131 52 5Z" fill="#F13F00"/>
</svg>
