<svg width="39" height="1316" viewBox="0 0 39 1316" fill="none" xmlns="http://www.w3.org/2000/svg">
<path d="M23 16C23 18.087 21.2609 20 19 20C16.7392 20 15 18.2609 15 16C15 13.913 16.7392 12 19 12C21.2609 12 23 13.913 23 16Z" fill="#F13F00"/>
<path d="M19.0358 2.65656C28.0865 2.65656 35.4236 9.99365 35.4236 19.0444C35.4236 28.0952 28.0865 35.4323 19.0358 35.4323C9.98504 35.4323 2.64795 28.0952 2.64795 19.0444C2.64795 9.99365 9.98504 2.65656 19.0358 2.65656Z" fill="#F13F00"/>
<path opacity="0.5" d="M19.0358 2.65656C28.0865 2.65656 35.4236 9.99365 35.4236 19.0444C35.4236 28.0952 28.0865 35.4323 19.0358 35.4323C9.98504 35.4323 2.64795 28.0952 2.64795 19.0444C2.64795 9.99365 9.98504 2.65656 19.0358 2.65656Z" fill="white"/>
<path d="M19.033 38.0658C29.5348 38.0658 38.0659 29.5347 38.0659 19.0329C38.0659 8.53109 29.5348 0 19.033 0C8.53121 0 0.000110626 8.53109 0.000110626 19.0329C-0.0258179 29.5347 8.53121 38.0658 19.033 38.0658ZM19.033 1.03722C28.9643 1.03722 37.0287 9.10156 37.0287 19.0329C37.0287 28.9642 28.9643 37.0286 19.033 37.0286C9.10168 37.0286 1.03733 28.9642 1.03733 19.0329C1.01139 9.12749 9.10168 1.03722 19.033 1.03722Z" fill="#F13F00"/>
<path d="M19 1315.5L19 37.5" stroke="#F13F00" stroke-width="2" stroke-dasharray="3.15 3.15"/>
</svg>
