<svg width="1920" height="157" viewBox="0 0 1920 157" fill="none" xmlns="http://www.w3.org/2000/svg">
<g opacity="0.5">
<mask id="mask0" mask-type="alpha" maskUnits="userSpaceOnUse" x="0" y="0" width="1920" height="157">
<rect width="1920" height="157" fill="#C4C4C4"/>
</mask>
<g mask="url(#mask0)">
<path d="M103.765 55.112H101.312V49.1866H98.8585V53.419H96.4053V55.112H93.9521V59.3444H91.4989V75.0891H-26.1142V71.1953H-33.1934V64.4234H-35.6466V67.3014H-38.0998V59.3444H-40.553V43.2612H-43.0062V49.8638H-45.4594V34.627H-47.9826V45.6314H-50.4359V19.221H-52.889V36.8279H-55.3422V24.1306H-57.7954V4.83072H-60.2486V24.1306H-62.7018V36.8279H-65.155V19.221H-67.6082V45.6314H-70.0614V34.627H-72.5847V49.8638H-75.0379V43.2612H-77.4911V59.3444H-79.9442V55.112H-82.3975V59.3444H-84.8506V64.4234H-87.3038V67.3014H-89.757V71.1953H-96.8362V75.0891H-214.449V71.1953H-221.529V64.4234H-223.982V67.3014H-226.435V63.5769H-228.888V55.112H-231.341V59.3444H-233.794V43.2612H-236.248V49.8638H-238.771V34.627H-241.224V45.6314H-243.677V19.221H-246.131V36.8279H-248.584V24.1306H-251.037V4.83072H-253.49V24.1306H-255.943V36.8279H-258.397V19.221H-260.85V45.6314H-263.373V34.627H-265.826V49.8638H-268.279V43.2612H-270.733V59.3444H-273.186V55.112H-275.639V63.5769H-278.092V55.112H-280.545V49.1866H-282.999V53.419H-285.522V55.112H-287.975V59.3444H-290.428V63.5769H-292.881V55.112H-295.335V59.3444H-297.788V43.2612H-300.241V49.8638H-302.694V34.627H-305.147V45.6314H-307.671V19.221H-310.124V36.8279H-312.577V24.1306H-315.03V4.83072H-317.483V24.1306H-319.937V36.8279H-322.39V19.221H-324.843V45.6314H-327.296V34.627H-329.819V49.8638H-332.273V43.2612H-334.726V59.3444H-337.179V55.112H-339.632V59.3444H-342.085V64.4234H-344.539V67.3014H-346.992V64.4234H-349.445V71.1953H-356.524V75.0891H-384V83.0461H-356.524V86.9399H-349.445V93.7118H-346.992V90.8337H-344.539V93.7118H-342.085V98.7907H-339.632V103.023H-337.179V98.7907H-334.726V114.874H-332.273V108.271H-329.819V123.508H-327.296V112.504H-324.843V138.914H-322.39V121.307H-319.937V134.005H-317.483V153.304H-315.03V134.005H-312.577V121.307H-310.124V138.914H-307.671V112.504H-305.147V123.508H-302.694V108.271H-300.241V114.874H-297.788V98.7907H-295.335V103.023H-292.881V94.5583H-290.428V98.7907H-287.975V103.023H-285.522V104.716H-282.999V108.949H-280.545V103.023H-278.092V94.5583H-275.639V103.023H-273.186V98.7907H-270.733V114.874H-268.279V108.271H-265.826V123.508H-263.373V112.504H-260.85V138.914H-258.397V121.307H-255.943V134.005H-253.49V153.304H-251.037V134.005H-248.584V121.307H-246.131V138.914H-243.677V112.504H-241.224V123.508H-238.771V108.271H-236.248V114.874H-233.794V98.7907H-231.341V103.023H-228.888V94.5583H-226.435V90.8337H-223.982V93.7118H-221.529V86.9399H-214.449V83.0461H-96.8362V86.9399H-89.757V90.8337H-87.3038V93.7118H-84.8506V98.7907H-82.3975V103.023H-79.9442V98.7907H-77.4911V114.874H-75.0379V108.271H-72.5847V123.508H-70.0614V112.504H-67.6082V138.914H-65.155V121.307H-62.7018V134.005H-60.2486V153.304H-57.7954V134.005H-55.3422V121.307H-52.889V138.914H-50.4359V112.504H-47.9826V123.508H-45.4594V108.271H-43.0062V114.874H-40.553V98.7907H-38.0998V90.8337H-35.6466V93.7118H-33.1934V86.9399H-26.1142V83.0461H91.4989V98.7907H93.9521V103.023H96.4053V104.716H98.8585V108.949H101.312V103.023H103.765V86.9399H110.844V71.1953H103.765V55.112Z" fill="#E0E0E0"/>
<path d="M468.94 75.0891V71.1953H461.931V64.4234H459.408V67.3014H456.955V59.3444H454.501V43.2612H452.048V49.8638H449.595V34.627H447.142V45.6314H444.689V19.221H442.235V36.8279H439.782V24.1306H437.259V4.83072H434.806V24.1306H432.352V36.8279H429.899V19.221H427.446V45.6314H424.993V34.627H422.54V49.8638H420.087V43.2612H417.633V59.3444H415.11V55.112H412.657V59.3444H410.204V64.4234H407.75V67.3014H405.297V71.1953H398.218V75.0891H280.675V71.1953H273.596V64.4234H271.143V67.3014H268.619V63.5769H266.166V55.112H263.713V59.3444H261.26V43.2612H258.807V49.8638H256.353V34.627H253.9V45.6314H251.447V19.221H248.994V36.8279H246.471V24.1306H244.017V4.83072H241.564V24.1306H239.111V36.8279H236.658V19.221H234.205V45.6314H231.751V34.627H229.298V49.8638H226.845V43.2612H224.392V59.3444H221.869V55.112H219.415V63.5769H216.962V55.112H214.509V49.1866H212.056V53.419H209.603V55.112H207.149V59.3444H204.696V63.5769H202.243V55.112H199.72V59.3444H197.267V43.2612H194.813V49.8638H192.36V34.627H189.907V45.6314H187.454V19.221H185.001V36.8279H182.547V24.1306H180.094V4.83072H177.571V24.1306H175.118V36.8279H172.665V19.221H170.211V45.6314H167.758V34.627H165.305V49.8638H162.852V43.2612H160.399V59.3444H157.945V55.112H155.422V59.3444H152.969V64.4234H150.516V67.3014H148.062V64.4234H145.609V71.1953H138.53V75.0891H111.054V83.0461H138.53V86.9399H145.609V93.7118H148.062V90.8337H150.516V93.7118H152.969V98.7907H155.422V103.023H157.945V98.7907H160.399V114.874H162.852V108.271H165.305V123.508H167.758V112.504H170.211V138.914H172.665V121.307H175.118V134.005H177.571V153.304H180.094V134.005H182.547V121.307H185.001V138.914H187.454V112.504H189.907V123.508H192.36V108.271H194.813V114.874H197.267V98.7907H199.72V103.023H202.243V94.5583H204.696V98.7907H207.149V103.023H209.603V104.716H212.056V108.949H214.509V103.023H216.962V94.5583H219.415V103.023H221.869V98.7907H224.392V114.874H226.845V108.271H229.298V123.508H231.751V112.504H234.205V138.914H236.658V121.307H239.111V134.005H241.564V153.304H244.017V134.005H246.471V121.307H248.994V138.914H251.447V112.504H253.9V123.508H256.353V108.271H258.807V114.874H261.26V98.7907H263.713V103.023H266.166V94.5583H268.619V90.8337H271.143V93.7118H273.596V86.9399H280.675V83.0461H398.218V86.9399H405.297V90.8337H407.75V93.7118H410.204V98.7907H412.657V103.023H415.11V98.7907H417.633V114.874H420.087V108.271H422.54V123.508H424.993V112.504H427.446V138.914H429.899V121.307H432.352V134.005H434.806V153.304H437.259V134.005H439.782V121.307H442.235V138.914H444.689V112.504H447.142V123.508H449.595V108.271H452.048V114.874H454.501V98.7907H456.955V90.8337H459.408V93.7118H461.931V86.9399H468.94V83.0461H586.553V75.0891H468.94Z" fill="#E0E0E0"/>
<path d="M706.406 83.2153V87.1092H713.485V93.881H716.008V91.003H718.461V93.881H720.915V98.96H723.368V103.192H725.821V98.96H728.274V115.043H730.727V108.441H733.181V123.677H735.634V112.673H738.087V139.083H740.61V121.477H743.063V134.174H745.517V153.474H747.97V134.174H750.423V121.477H752.876V139.083H755.329V112.673H757.783V123.677H760.236V108.441H762.759V115.043H765.212V98.96H767.666V103.192H770.119V94.7275H772.572V98.96H775.025V103.192H777.478V104.885H779.932V109.118H782.385V103.192H784.908V94.7275H787.361V103.192H789.814V98.96H792.268V115.043H794.721V108.441H797.174V123.677H799.627V112.673H802.08V139.083H804.534V121.477H807.057V134.174H809.51V153.474H811.963V134.174H814.416V121.477H816.87V139.083H819.323V112.673H821.776V123.677H824.229V108.441H826.682V115.043H829.135V98.96H831.659V103.192H834.112V98.96H836.215V103.192H838.668V98.96H841.121V115.043H843.644V108.441H846.097V123.677H848.551V112.673H851.004V139.083H853.457V121.477H855.91V134.174H858.363V153.474H860.817V134.174H863.27V121.477H865.793V139.083H868.246V112.673H870.7V123.677H873.153V108.441H875.606V115.043H878.059V98.96H880.512V103.192H882.966V94.7275H885.419V98.96H887.942V103.192H890.395V104.885H892.848V109.118H895.302V103.192H897.755V94.7275H900.208V103.192H902.661V98.96H905.114V115.043H907.568V108.441H910.091V123.677H912.544V112.673H914.997V139.083H917.45V121.477H919.904V134.174H922.357V153.474H924.81V134.174H927.263V121.477H929.716V139.083H932.169V112.673H934.693V123.677H937.146V108.441H939.599V115.043H942.052V98.96H944.506V103.192H946.959V94.7275H949.412V91.003H951.865V93.881H954.318V87.1092H961.398V83.2153H966.094V87.1092H973.173V91.003H975.696V93.881H978.149V98.96H980.603V103.192H983.056V98.96H985.509V115.043H987.962V108.441H990.415V123.677H992.868V112.673H995.322V139.083H997.845V121.477H1000.3V134.174H1002.75V153.474H1005.2V134.174H1007.66V121.477H1010.11V139.083H1012.56V112.673H1015.02V123.677H1017.47V108.441H1019.92V115.043H1022.45V98.96H1024.9V91.003H1027.35V93.881H1029.81V87.1092H1036.89V83.2153H1079.01V87.1092H1086.09V91.003H1088.54V93.881H1091V98.96H1093.45V103.192H1095.9V98.96H1098.36V115.043H1100.88V108.441H1103.33V123.677H1105.79V112.673H1108.24V139.083H1110.69V121.477H1113.15V134.174H1115.6V153.474H1118.05V134.174H1120.5V121.477H1122.96V139.083H1125.48V112.673H1127.93V123.677H1130.39V108.441H1132.84V115.043H1135.29V98.96H1137.75V91.003H1140.2V93.881H1142.65V87.1092H1149.73V83.2153H1154.43H1164.52H1192V87.1092H1199.08V93.881H1201.53V91.003H1203.98V93.881H1206.44V98.96H1208.89V103.192H1211.34V98.96H1213.8V115.043H1216.25V108.441H1218.7V123.677H1221.23V112.673H1223.68V139.083H1226.13V121.477H1228.59V134.174H1231.04V153.474H1233.49V134.174H1235.94V121.477H1238.4V139.083H1240.85V112.673H1243.37V123.677H1245.83V108.441H1248.28V115.043H1250.73V98.96H1253.19V103.192H1255.64V94.7275H1258.09V98.96H1260.55V103.192H1263V104.885H1265.45V109.118H1267.98V103.192H1270.43V94.7275H1272.88V103.192H1275.34V98.96H1277.79V115.043H1280.24V108.441H1282.7V123.677H1285.15V112.673H1287.6V139.083H1290.13V121.477H1292.58V134.174H1295.03V153.474H1297.49V134.174H1299.94V121.477H1302.39V139.083H1304.84V112.673H1307.3V123.677H1309.75V108.441H1312.27V115.043H1314.73V98.96H1317.18V103.192H1319.63V94.7275H1322.09V91.003H1324.54V93.881H1326.99V87.1092H1334.07V83.2153H1451.69V87.1092H1458.76V91.003H1461.22V93.881H1463.67V98.96H1466.12V103.192H1468.58V98.96H1471.03V115.043H1473.48V108.441H1475.94V123.677H1478.39V112.673H1480.91V139.083H1483.37V121.477H1485.82V134.174H1488.27V153.474H1490.73V134.174H1493.18V121.477H1495.63V139.083H1498.09V112.673H1500.54V123.677H1503.06V108.441H1505.52V115.043H1507.97V98.96H1510.42V91.003H1512.88V93.881H1515.33V87.1092H1522.41V83.2153H1561.8L1562.5 75.2583H1522.41V71.3645H1515.33V64.5926H1512.88V67.4707H1510.42V59.5137H1507.97V43.4305H1505.52V50.0331H1503.06V34.7963H1500.54V45.8006H1498.09V19.3902H1495.63V36.9972H1493.18V24.2999H1490.73V4.99998H1488.27V24.2999H1485.82V36.9972H1483.37V19.3902H1480.91V45.8006H1478.39V34.7963H1475.94V50.0331H1473.48V43.4305H1471.03V59.5137H1468.58V55.2813H1466.12V59.5137H1463.67V64.5926H1461.22V67.4707H1458.76V71.3645H1451.69V75.2583H1334.07V71.3645H1326.99V64.5926H1324.54V67.4707H1322.09V63.7461H1319.63V55.2813H1317.18V59.5137H1314.73V43.4305H1312.27V50.0331H1309.75V34.7963H1307.3V45.8006H1304.84V19.3902H1302.39V36.9972H1299.94V24.2999H1297.49V4.99998H1295.03V24.2999H1292.58V36.9972H1290.13V19.3902H1287.6V45.8006H1285.15V34.7963H1282.7V50.0331H1280.24V43.4305H1277.79V59.5137H1275.34V55.2813H1272.88V63.7461H1270.43V55.2813H1267.98V49.3559H1265.45V53.5883H1263V55.2813H1260.55V59.5137H1258.09V63.7461H1255.64V55.2813H1253.19V59.5137H1250.73V43.4305H1248.28V50.0331H1245.83V34.7963H1243.37V45.8006H1240.85V19.3902H1238.4V36.9972H1235.94V24.2999H1233.49V4.99998H1231.04V24.2999H1228.59V36.9972H1226.13V19.3902H1223.68V45.8006H1221.23V34.7963H1218.7V50.0331H1216.25V43.4305H1213.8V59.5137H1211.34V55.2813H1208.89V59.5137H1206.44V64.5926H1203.98V67.4707H1201.53V64.5926H1199.08V71.3645H1192V75.2583H1164.52H1154.43H1149.73V71.3645H1142.65V64.5926H1140.2V67.4707H1137.75V59.5137H1135.29V43.4305H1132.84V50.0331H1130.39V34.7963H1127.93V45.8006H1125.48V19.3902H1122.96V36.9972H1120.5V24.2999H1118.05V4.99998H1115.6V24.2999H1113.15V36.9972H1110.69V19.3902H1108.24V45.8006H1105.79V34.7963H1103.33V50.0331H1100.88V43.4305H1098.36V59.5137H1095.9V55.2813H1093.45V59.5137H1091V64.5926H1088.54V67.4707H1086.09V71.3645H1079.01V75.2583H1036.89V71.3645H1029.81V64.5926H1027.35V67.4707H1024.9V59.5137H1022.45V43.4305H1019.92V50.0331H1017.47V34.7963H1015.02V45.8006H1012.56V19.3902H1010.11V36.9972H1007.66V24.2999H1005.2V4.99998H1002.75V24.2999H1000.3V36.9972H997.845V19.3902H995.322V45.8006H992.868V34.7963H990.415V50.0331H987.962V43.4305H985.509V59.5137H983.056V55.2813H980.603V59.5137H978.149V64.5926H975.696V67.4707H973.173V71.3645H966.094V75.2583H961.398V71.3645H954.318V64.5926H951.865V67.4707H949.412V63.7461H946.959V55.2813H944.506V59.5137H942.052V43.4305H939.599V50.0331H937.146V34.7963H934.693V45.8006H932.169V19.3902H929.716V36.9972H927.263V24.2999H924.81V4.99998H922.357V24.2999H919.904V36.9972H917.45V19.3902H914.997V45.8006H912.544V34.7963H910.091V50.0331H907.568V43.4305H905.114V59.5137H902.661V55.2813H900.208V63.7461H897.755V55.2813H895.302V49.3559H892.848V53.5883H890.395V55.2813H887.942V59.5137H885.419V63.7461H882.966V55.2813H880.512V59.5137H878.059V43.4305H875.606V50.0331H873.153V34.7963H870.7V45.8006H868.246V19.3902H865.793V36.9972H863.27V24.2999H860.817V4.99998H858.363V24.2999H855.91V36.9972H853.457V19.3902H851.004V45.8006H848.551V34.7963H846.097V50.0331H843.644V43.4305H841.121V59.5137H838.668V55.2813H836.215V59.5137H834.112V55.2813H831.659V59.5137H829.135V43.4305H826.682V50.0331H824.229V34.7963H821.776V45.8006H819.323V19.3902H816.87V36.9972H814.416V24.2999H811.963V4.99998H809.51V24.2999H807.057V36.9972H804.534V19.3902H802.08V45.8006H799.627V34.7963H797.174V50.0331H794.721V43.4305H792.268V59.5137H789.814V55.2813H787.361V63.7461H784.908V55.2813H782.385V49.3559H779.932V53.5883H777.478V55.2813H775.025V59.5137H772.572V63.7461H770.119V55.2813H767.666V59.5137H765.212V43.4305H762.759V50.0331H760.236V34.7963H757.783V45.8006H755.329V19.3902H752.876V36.9972H750.423V24.2999H747.97V4.99998H745.517V24.2999H743.063V36.9972H740.61V19.3902H738.087V45.8006H735.634V34.7963H733.181V50.0331H730.727V43.4305H728.274V59.5137H725.821V55.2813H723.368V59.5137H720.915V64.5926H718.461V67.4707H716.008V64.5926H713.485V71.3645H706.406V75.2583H679V83.2153H706.406Z" fill="#E0E0E0"/>
<path d="M2381.09 83.046V86.9399H2374.02V93.7118H2371.49V90.8337H2369.04V93.7118H2366.59V98.7907H2364.13V103.023H2361.68V98.7907H2359.23V114.874H2356.77V108.271H2354.32V123.508H2351.87V112.504H2349.41V138.914H2346.89V121.307H2344.44V134.005H2341.98V153.304H2339.53V134.005H2337.08V121.307H2334.62V138.914H2332.17V112.504H2329.72V123.508H2327.26V108.271H2324.74V114.874H2322.29V98.7907H2319.83V103.023H2317.38V94.5583H2314.93V98.7907H2312.47V103.023H2310.02V104.716H2307.57V108.949H2305.12V103.023H2302.59V94.5583H2300.14V103.023H2297.69V98.7907H2295.23V114.874H2292.78V108.271H2290.33V123.508H2287.87V112.504H2285.42V138.914H2282.97V121.307H2280.44V134.005H2277.99V153.304H2275.54V134.005H2273.08V121.307H2270.63V138.914H2268.18V112.504H2265.72V123.508H2263.27V108.271H2260.82V114.874H2258.36V98.7907H2255.84V103.023H2253.39V98.7907H2251.29V103.023H2248.83V98.7907H2246.38V114.874H2243.86V108.271H2241.4V123.508H2238.95V112.504H2236.5V138.914H2234.04V121.307H2231.59V134.005H2229.14V153.304H2226.68V134.005H2224.23V121.307H2221.71V138.914H2219.25V112.504H2216.8V123.508H2214.35V108.271H2211.89V114.874H2209.44V98.7907H2206.99V103.023H2204.53V94.5583H2202.08V98.7907H2199.56V103.023H2197.1V104.716H2194.65V108.949H2192.2V103.023H2189.75V94.5583H2187.29V103.023H2184.84V98.7907H2182.39V114.874H2179.93V108.271H2177.41V123.508H2174.96V112.504H2172.5V138.914H2170.05V121.307H2167.6V134.005H2165.14V153.304H2162.69V134.005H2160.24V121.307H2157.78V138.914H2155.33V112.504H2152.81V123.508H2150.35V108.271H2147.9V114.874H2145.45V98.7907H2142.99V103.023H2140.54V94.5583H2138.09V90.8337H2135.63V93.7118H2133.18V86.9399H2126.1V83.046H2121.41V86.9399H2114.33V90.8337H2111.8V93.7118H2109.35V98.7907H2106.9V103.023H2104.44V98.7907H2101.99V114.874H2099.54V108.271H2097.08V123.508H2094.63V112.504H2092.18V138.914H2089.66V121.307H2087.2V134.005H2084.75V153.304H2082.3V134.005H2079.84V121.307H2077.39V138.914H2074.94V112.504H2072.48V123.508H2070.03V108.271H2067.58V114.874H2065.05V98.7907H2062.6V90.8337H2060.15V93.7118H2057.69V86.9399H2050.61V83.046H2008.49V86.9399H2001.41V90.8337H1998.96V93.7118H1996.5V98.7907H1994.05V103.023H1991.6V98.7907H1989.14V114.874H1986.62V108.271H1984.17V123.508H1981.71V112.504H1979.26V138.914H1976.81V121.307H1974.35V134.005H1971.9V153.304H1969.45V134.005H1967V121.307H1964.54V138.914H1962.02V112.504H1959.57V123.508H1957.11V108.271H1954.66V114.874H1952.21V98.7907H1949.75V90.8337H1947.3V93.7118H1944.85V86.9399H1937.77V83.046H1933.07H1922.98H1895.5V86.9399H1888.42V93.7118H1885.97V90.8337H1883.52V93.7118H1881.06V98.7907H1878.61V103.023H1876.16V98.7907H1873.7V114.874H1871.25V108.271H1868.8V123.508H1866.27V112.504H1863.82V138.914H1861.37V121.307H1858.91V134.005H1856.46V153.304H1854.01V134.005H1851.56V121.307H1849.1V138.914H1846.65V112.504H1844.13V123.508H1841.67V108.271H1839.22V114.874H1836.77V98.7907H1834.31V103.023H1831.86V94.5583H1829.41V98.7907H1826.95V103.023H1824.5V104.716H1822.05V108.949H1819.52V103.023H1817.07V94.5583H1814.62V103.023H1812.16V98.7907H1809.71V114.874H1807.26V108.271H1804.8V123.508H1802.35V112.504H1799.9V138.914H1797.37V121.307H1794.92V134.005H1792.47V153.304H1790.01V134.005H1787.56V121.307H1785.11V138.914H1782.66V112.504H1780.2V123.508H1777.75V108.271H1775.23V114.874H1772.77V98.7907H1770.32V103.023H1767.87V94.5583H1765.41V90.8337H1762.96V93.7118H1760.51V86.9399H1753.43V83.046H1635.81V86.9399H1628.74V90.8337H1626.28V93.7118H1623.83V98.7907H1621.38V103.023H1618.92V98.7907H1616.47V114.874H1614.02V108.271H1611.56V123.508H1609.11V112.504H1606.59V138.914H1604.13V121.307H1601.68V134.005H1599.23V153.304H1596.77V134.005H1594.32V121.307H1591.87V138.914H1589.41V112.504H1586.96V123.508H1584.44V108.271H1581.98V114.874H1579.53V98.7907H1577.08V90.8337H1574.62V93.7118H1572.17V86.9399H1565.09V83.046H1525.7L1525 75.0891H1565.09V71.1952H1572.17V64.4233H1574.62V67.3014H1577.08V59.3444H1579.53V43.2612H1581.98V49.8638H1584.44V34.627H1586.96V45.6313H1589.41V19.221H1591.87V36.8279H1594.32V24.1306H1596.77V4.8307H1599.23V24.1306H1601.68V36.8279H1604.13V19.221H1606.59V45.6313H1609.11V34.627H1611.56V49.8638H1614.02V43.2612H1616.47V59.3444H1618.92V55.112H1621.38V59.3444H1623.83V64.4233H1626.28V67.3014H1628.74V71.1952H1635.81V75.0891H1753.43V71.1952H1760.51V64.4233H1762.96V67.3014H1765.41V63.5768H1767.87V55.112H1770.32V59.3444H1772.77V43.2612H1775.23V49.8638H1777.75V34.627H1780.2V45.6313H1782.66V19.221H1785.11V36.8279H1787.56V24.1306H1790.01V4.8307H1792.47V24.1306H1794.92V36.8279H1797.37V19.221H1799.9V45.6313H1802.35V34.627H1804.8V49.8638H1807.26V43.2612H1809.71V59.3444H1812.16V55.112H1814.62V63.5768H1817.07V55.112H1819.52V49.1866H1822.05V53.419H1824.5V55.112H1826.95V59.3444H1829.41V63.5768H1831.86V55.112H1834.31V59.3444H1836.77V43.2612H1839.22V49.8638H1841.67V34.627H1844.13V45.6313H1846.65V19.221H1849.1V36.8279H1851.56V24.1306H1854.01V4.8307H1856.46V24.1306H1858.91V36.8279H1861.37V19.221H1863.82V45.6313H1866.27V34.627H1868.8V49.8638H1871.25V43.2612H1873.7V59.3444H1876.16V55.112H1878.61V59.3444H1881.06V64.4233H1883.52V67.3014H1885.97V64.4233H1888.42V71.1952H1895.5V75.0891H1922.98H1933.07H1937.77V71.1952H1944.85V64.4233H1947.3V67.3014H1949.75V59.3444H1952.21V43.2612H1954.66V49.8638H1957.11V34.627H1959.57V45.6313H1962.02V19.221H1964.54V36.8279H1967V24.1306H1969.45V4.8307H1971.9V24.1306H1974.35V36.8279H1976.81V19.221H1979.26V45.6313H1981.71V34.627H1984.17V49.8638H1986.62V43.2612H1989.14V59.3444H1991.6V55.112H1994.05V59.3444H1996.5V64.4233H1998.96V67.3014H2001.41V71.1952H2008.49V75.0891H2050.61V71.1952H2057.69V64.4233H2060.15V67.3014H2062.6V59.3444H2065.05V43.2612H2067.58V49.8638H2070.03V34.627H2072.48V45.6313H2074.94V19.221H2077.39V36.8279H2079.84V24.1306H2082.3V4.8307H2084.75V24.1306H2087.2V36.8279H2089.66V19.221H2092.18V45.6313H2094.63V34.627H2097.08V49.8638H2099.54V43.2612H2101.99V59.3444H2104.44V55.112H2106.9V59.3444H2109.35V64.4233H2111.8V67.3014H2114.33V71.1952H2121.41V75.0891H2126.1V71.1952H2133.18V64.4233H2135.63V67.3014H2138.09V63.5768H2140.54V55.112H2142.99V59.3444H2145.45V43.2612H2147.9V49.8638H2150.35V34.627H2152.81V45.6313H2155.33V19.221H2157.78V36.8279H2160.24V24.1306H2162.69V4.8307H2165.14V24.1306H2167.6V36.8279H2170.05V19.221H2172.5V45.6313H2174.96V34.627H2177.41V49.8638H2179.93V43.2612H2182.39V59.3444H2184.84V55.112H2187.29V63.5768H2189.75V55.112H2192.2V49.1866H2194.65V53.419H2197.1V55.112H2199.56V59.3444H2202.08V63.5768H2204.53V55.112H2206.99V59.3444H2209.44V43.2612H2211.89V49.8638H2214.35V34.627H2216.8V45.6313H2219.25V19.221H2221.71V36.8279H2224.23V24.1306H2226.68V4.8307H2229.14V24.1306H2231.59V36.8279H2234.04V19.221H2236.5V45.6313H2238.95V34.627H2241.4V49.8638H2243.86V43.2612H2246.38V59.3444H2248.83V55.112H2251.29V59.3444H2253.39V55.112H2255.84V59.3444H2258.36V43.2612H2260.82V49.8638H2263.27V34.627H2265.72V45.6313H2268.18V19.221H2270.63V36.8279H2273.08V24.1306H2275.54V4.8307H2277.99V24.1306H2280.44V36.8279H2282.97V19.221H2285.42V45.6313H2287.87V34.627H2290.33V49.8638H2292.78V43.2612H2295.23V59.3444H2297.69V55.112H2300.14V63.5768H2302.59V55.112H2305.12V49.1866H2307.57V53.419H2310.02V55.112H2312.47V59.3444H2314.93V63.5768H2317.38V55.112H2319.83V59.3444H2322.29V43.2612H2324.74V49.8638H2327.26V34.627H2329.72V45.6313H2332.17V19.221H2334.62V36.8279H2337.08V24.1306H2339.53V4.8307H2341.98V24.1306H2344.44V36.8279H2346.89V19.221H2349.41V45.6313H2351.87V34.627H2354.32V49.8638H2356.77V43.2612H2359.23V59.3444H2361.68V55.112H2364.13V59.3444H2366.59V64.4233H2369.04V67.3014H2371.49V64.4233H2374.02V71.1952H2381.09V75.0891H2408.5V83.046H2381.09Z" fill="#E0E0E0"/>
<path d="M1920 75H0V85H1920V75Z" fill="#E6E6E6"/>
</g>
</g>
</svg>
