<svg width="480" height="94" viewBox="0 0 480 94" fill="none" xmlns="http://www.w3.org/2000/svg">
<g opacity="0.5">
<mask id="mask0" mask-type="alpha" maskUnits="userSpaceOnUse" x="0" y="0" width="480" height="94">
<rect width="480" height="94" fill="#C4C4C4"/>
</mask>
<g mask="url(#mask0)">
<path d="M77.9888 32.9237H76.5233V29.3839H75.0578V31.9123H73.5922V32.9237H72.1267V35.4521H70.6612V44.8579H0.399597V42.5318H-3.8295V38.4863H-5.29503V40.2056H-6.76054V35.4521H-8.22607V25.8441H-9.6916V29.7884H-11.1571V20.6861H-12.6645V27.26H-14.1301V11.4825H-15.5956V22.0008H-17.0611V14.4155H-18.5266V2.88586H-19.9922V14.4155H-21.4577V22.0008H-22.9232V11.4825H-24.3887V27.26H-25.8543V20.6861H-27.3617V29.7884H-28.8272V25.8441H-30.2927V35.4521H-31.7583V32.9237H-33.2238V35.4521H-34.6893V38.4863H-36.1548V40.2056H-37.6204V42.5318H-41.8495V44.8579H-112.111V42.5318H-116.34V38.4863H-117.806V40.2056H-119.271V37.9806H-120.737V32.9237H-122.202V35.4521H-123.668V25.8441H-125.133V29.7884H-126.641V20.6861H-128.106V27.26H-129.572V11.4825H-131.037V22.0008H-132.503V14.4155H-133.968V2.88586H-135.434V14.4155H-136.899V22.0008H-138.365V11.4825H-139.83V27.26H-141.338V20.6861H-142.803V29.7884H-144.269V25.8441H-145.734V35.4521H-147.2V32.9237H-148.665V37.9806H-150.131V32.9237H-151.597V29.3839H-153.062V31.9123H-154.569V32.9237H-156.035V35.4521H-157.501V37.9806H-158.966V32.9237H-160.432V35.4521H-161.897V25.8441H-163.363V29.7884H-164.828V20.6861H-166.294V27.26H-167.801V11.4825H-169.267V22.0008H-170.732V14.4155H-172.198V2.88586H-173.663V14.4155H-175.129V22.0008H-176.594V11.4825H-178.06V27.26H-179.525V20.6861H-181.033V29.7884H-182.498V25.8441H-183.964V35.4521H-185.429V32.9237H-186.895V35.4521H-188.36V38.4863H-189.826V40.2056H-191.291V38.4863H-192.757V42.5318H-196.986V44.8579H-213.4V49.6114H-196.986V51.9375H-192.757V55.983H-191.291V54.2637H-189.826V55.983H-188.36V59.0172H-186.895V61.5456H-185.429V59.0172H-183.964V68.6252H-182.498V64.6809H-181.033V73.7832H-179.525V67.2093H-178.06V82.9867H-176.594V72.4684H-175.129V80.0538H-173.663V91.5834H-172.198V80.0538H-170.732V72.4684H-169.267V82.9867H-167.801V67.2093H-166.294V73.7832H-164.828V64.6809H-163.363V68.6252H-161.897V59.0172H-160.432V61.5456H-158.966V56.4887H-157.501V59.0172H-156.035V61.5456H-154.569V62.557H-153.062V65.0854H-151.597V61.5456H-150.131V56.4887H-148.665V61.5456H-147.2V59.0172H-145.734V68.6252H-144.269V64.6809H-142.803V73.7832H-141.338V67.2093H-139.83V82.9867H-138.365V72.4684H-136.899V80.0538H-135.434V91.5834H-133.968V80.0538H-132.503V72.4684H-131.037V82.9867H-129.572V67.2093H-128.106V73.7832H-126.641V64.6809H-125.133V68.6252H-123.668V59.0172H-122.202V61.5456H-120.737V56.4887H-119.271V54.2637H-117.806V55.983H-116.34V51.9375H-112.111V49.6114H-41.8495V51.9375H-37.6204V54.2637H-36.1548V55.983H-34.6893V59.0172H-33.2238V61.5456H-31.7583V59.0172H-30.2927V68.6252H-28.8272V64.6809H-27.3617V73.7832H-25.8543V67.2093H-24.3887V82.9867H-22.9232V72.4684H-21.4577V80.0538H-19.9922V91.5834H-18.5266V80.0538H-17.0611V72.4684H-15.5956V82.9867H-14.1301V67.2093H-12.6645V73.7832H-11.1571V64.6809H-9.6916V68.6252H-8.22607V59.0172H-6.76054V54.2637H-5.29503V55.983H-3.8295V51.9375H0.399597V49.6114H70.6612V59.0172H72.1267V61.5456H73.5922V62.557H75.0578V65.0854H76.5233V61.5456H77.9888V51.9375H82.2179V42.5318H77.9888V32.9237Z" fill="#E0E0E0"/>
<path d="M296.143 44.8579V42.5318H291.956V38.4863H290.448V40.2056H288.983V35.4521H287.517V25.8441H286.052V29.7884H284.586V20.6861H283.121V27.26H281.655V11.4825H280.189V22.0008H278.724V14.4155H277.216V2.88586H275.751V14.4155H274.285V22.0008H272.82V11.4825H271.354V27.26H269.889V20.6861H268.423V29.7884H266.958V25.8441H265.492V35.4521H263.985V32.9237H262.519V35.4521H261.054V38.4863H259.588V40.2056H258.123V42.5318H253.894V44.8579H183.674V42.5318H179.445V38.4863H177.979V40.2056H176.472V37.9806H175.006V32.9237H173.541V35.4521H172.075V25.8441H170.61V29.7884H169.144V20.6861H167.679V27.26H166.213V11.4825H164.748V22.0008H163.24V14.4155H161.775V2.88586H160.309V14.4155H158.844V22.0008H157.378V11.4825H155.913V27.26H154.447V20.6861H152.982V29.7884H151.516V25.8441H150.051V35.4521H148.543V32.9237H147.078V37.9806H145.612V32.9237H144.147V29.3839H142.681V31.9123H141.216V32.9237H139.75V35.4521H138.285V37.9806H136.819V32.9237H135.312V35.4521H133.846V25.8441H132.381V29.7884H130.915V20.6861H129.449V27.26H127.984V11.4825H126.518V22.0008H125.053V14.4155H123.587V2.88586H122.08V14.4155H120.614V22.0008H119.149V11.4825H117.683V27.26H116.218V20.6861H114.752V29.7884H113.287V25.8441H111.821V35.4521H110.356V32.9237H108.848V35.4521H107.383V38.4863H105.917V40.2056H104.452V38.4863H102.986V42.5318H98.7572V44.8579H82.3433V49.6114H98.7572V51.9375H102.986V55.983H104.452V54.2637H105.917V55.983H107.383V59.0172H108.848V61.5456H110.356V59.0172H111.821V68.6252H113.287V64.6809H114.752V73.7832H116.218V67.2093H117.683V82.9867H119.149V72.4684H120.614V80.0538H122.08V91.5834H123.587V80.0538H125.053V72.4684H126.518V82.9867H127.984V67.2093H129.449V73.7832H130.915V64.6809H132.381V68.6252H133.846V59.0172H135.312V61.5456H136.819V56.4887H138.285V59.0172H139.75V61.5456H141.216V62.557H142.681V65.0854H144.147V61.5456H145.612V56.4887H147.078V61.5456H148.543V59.0172H150.051V68.6252H151.516V64.6809H152.982V73.7832H154.447V67.2093H155.913V82.9867H157.378V72.4684H158.844V80.0538H160.309V91.5834H161.775V80.0538H163.24V72.4684H164.748V82.9867H166.213V67.2093H167.679V73.7832H169.144V64.6809H170.61V68.6252H172.075V59.0172H173.541V61.5456H175.006V56.4887H176.472V54.2637H177.979V55.983H179.445V51.9375H183.674V49.6114H253.894V51.9375H258.123V54.2637H259.588V55.983H261.054V59.0172H262.519V61.5456H263.985V59.0172H265.492V68.6252H266.958V64.6809H268.423V73.7832H269.889V67.2093H271.354V82.9867H272.82V72.4684H274.285V80.0538H275.751V91.5834H277.216V80.0538H278.724V72.4684H280.189V82.9867H281.655V67.2093H283.121V73.7832H284.586V64.6809H286.052V68.6252H287.517V59.0172H288.983V54.2637H290.448V55.983H291.956V51.9375H296.143V49.6114H366.404V44.8579H296.143Z" fill="#E0E0E0"/>
<path d="M793.427 49.7255V52.0517H789.198V56.0972H787.691V54.3779H786.225V56.0972H784.76V59.1313H783.294V61.6598H781.829V59.1313H780.363V68.7394H778.897V64.795H777.432V73.8974H775.966V67.3235H774.501V83.1009H772.994V72.5826H771.528V80.1679H770.062V91.6976H768.597V80.1679H767.131V72.5826H765.666V83.1009H764.2V67.3235H762.735V73.8974H761.269V64.795H759.762V68.7394H758.296V59.1313H756.831V61.6598H755.365V56.6029H753.9V59.1313H752.434V61.6598H750.969V62.6711H749.503V65.1996H748.038V61.6598H746.53V56.6029H745.065V61.6598H743.599V59.1313H742.134V68.7394H740.668V64.795H739.203V73.8974H737.737V67.3235H736.272V83.1009H734.806V72.5826H733.299V80.1679H731.833V91.6976H730.368V80.1679H728.902V72.5826H727.437V83.1009H725.971V67.3235H724.505V73.8974H723.04V64.795H721.574V68.7394H720.109V59.1313H718.602V61.6598H717.136V59.1313H715.88V61.6598H714.414V59.1313H712.949V68.7394H711.441V64.795H709.976V73.8974H708.51V67.3235H707.045V83.1009H705.579V72.5826H704.114V80.1679H702.648V91.6976H701.183V80.1679H699.717V72.5826H698.21V83.1009H696.744V67.3235H695.279V73.8974H693.813V64.795H692.348V68.7394H690.882V59.1313H689.417V61.6598H687.951V56.6029H686.486V59.1313H684.978V61.6598H683.513V62.6711H682.047V65.1996H680.582V61.6598H679.116V56.6029H677.651V61.6598H676.185V59.1313H674.719V68.7394H673.254V64.795H671.747V73.8974H670.281V67.3235H668.816V83.1009H667.35V72.5826H665.884V80.1679H664.419V91.6976H662.953V80.1679H661.488V72.5826H660.022V83.1009H658.557V67.3235H657.049V73.8974H655.584V64.795H654.118V68.7394H652.653V59.1313H651.187V61.6598H649.722V56.6029H648.256V54.3779H646.791V56.0972H645.325V52.0517H641.096V49.7255H638.291V52.0517H634.062V54.3779H632.554V56.0972H631.089V59.1313H629.623V61.6598H628.158V59.1313H626.692V68.7394H625.227V64.795H623.761V73.8974H622.296V67.3235H620.83V83.1009H619.323V72.5826H617.857V80.1679H616.392V91.6976H614.926V80.1679H613.46V72.5826H611.995V83.1009H610.529V67.3235H609.064V73.8974H607.598V64.795H606.133V68.7394H604.625V59.1313H603.16V54.3779H601.694V56.0972H600.229V52.0517H596V49.7255H570.835V52.0517H566.605V54.3779H565.14V56.0972H563.674V59.1313H562.209V61.6598H560.743V59.1313H559.278V68.7394H557.77V64.795H556.305V73.8974H554.839V67.3235H553.374V83.1009H551.908V72.5826H550.443V80.1679H548.977V91.6976H547.512V80.1679H546.046V72.5826H544.581V83.1009H543.073V67.3235H541.608V73.8974H540.142V64.795H538.677V68.7394H537.211V59.1313H535.746V54.3779H534.28V56.0972H532.815V52.0517H528.585V49.7255H525.78H519.75H503.337V52.0517H499.107V56.0972H497.642V54.3779H496.176V56.0972H494.711V59.1313H493.245V61.6598H491.78V59.1313H490.314V68.7394H488.849V64.795H487.383V73.8974H485.876V67.3235H484.41V83.1009H482.945V72.5826H481.479V80.1679H480.014V91.6976H478.548V80.1679H477.083V72.5826H475.617V83.1009H474.152V67.3235H472.644V73.8974H471.179V64.795H469.713V68.7394H468.248V59.1313H466.782V61.6598H465.317V56.6029H463.851V59.1313H462.385V61.6598H460.92V62.6711H459.454V65.1996H457.947V61.6598H456.482V56.6029H455.016V61.6598H453.55V59.1313H452.085V68.7394H450.619V64.795H449.154V73.8974H447.688V67.3235H446.223V83.1009H444.715V72.5826H443.25V80.1679H441.784V91.6976H440.319V80.1679H438.853V72.5826H437.388V83.1009H435.922V67.3235H434.457V73.8974H432.991V64.795H431.484V68.7394H430.018V59.1313H428.553V61.6598H427.087V56.6029H425.622V54.3779H424.156V56.0972H422.691V52.0517H418.462V49.7255H348.2V52.0517H343.971V54.3779H342.505V56.0972H341.04V59.1313H339.574V61.6598H338.109V59.1313H336.643V68.7394H335.178V64.795H333.712V73.8974H332.247V67.3235H330.739V83.1009H329.274V72.5826H327.808V80.1679H326.343V91.6976H324.877V80.1679H323.412V72.5826H321.946V83.1009H320.481V67.3235H319.015V73.8974H317.508V64.795H316.042V68.7394H314.577V59.1313H313.111V54.3779H311.646V56.0972H310.18V52.0517H305.951V49.7255H282.419L282 44.9721H305.951V42.6459H310.18V38.6004H311.646V40.3198H313.111V35.5663H314.577V25.9582H316.042V29.9026H317.508V20.8002H319.015V27.3742H320.481V11.5967H321.946V22.115H323.412V14.5297H324.877V3.00002H326.343V14.5297H327.808V22.115H329.274V11.5967H330.739V27.3742H332.247V20.8002H333.712V29.9026H335.178V25.9582H336.643V35.5663H338.109V33.0379H339.574V35.5663H341.04V38.6004H342.505V40.3198H343.971V42.6459H348.2V44.9721H418.462V42.6459H422.691V38.6004H424.156V40.3198H425.622V38.0947H427.087V33.0379H428.553V35.5663H430.018V25.9582H431.484V29.9026H432.991V20.8002H434.457V27.3742H435.922V11.5967H437.388V22.115H438.853V14.5297H440.319V3.00002H441.784V14.5297H443.25V22.115H444.715V11.5967H446.223V27.3742H447.688V20.8002H449.154V29.9026H450.619V25.9582H452.085V35.5663H453.55V33.0379H455.016V38.0947H456.482V33.0379H457.947V29.498H459.454V32.0265H460.92V33.0379H462.385V35.5663H463.851V38.0947H465.317V33.0379H466.782V35.5663H468.248V25.9582H469.713V29.9026H471.179V20.8002H472.644V27.3742H474.152V11.5967H475.617V22.115H477.083V14.5297H478.548V3.00002H480.014V14.5297H481.479V22.115H482.945V11.5967H484.41V27.3742H485.876V20.8002H487.383V29.9026H488.849V25.9582H490.314V35.5663H491.78V33.0379H493.245V35.5663H494.711V38.6004H496.176V40.3198H497.642V38.6004H499.107V42.6459H503.337V44.9721H519.75H525.78H528.585V42.6459H532.815V38.6004H534.28V40.3198H535.746V35.5663H537.211V25.9582H538.677V29.9026H540.142V20.8002H541.608V27.3742H543.073V11.5967H544.581V22.115H546.046V14.5297H547.512V3.00002H548.977V14.5297H550.443V22.115H551.908V11.5967H553.374V27.3742H554.839V20.8002H556.305V29.9026H557.77V25.9582H559.278V35.5663H560.743V33.0379H562.209V35.5663H563.674V38.6004H565.14V40.3198H566.605V42.6459H570.835V44.9721H596V42.6459H600.229V38.6004H601.694V40.3198H603.16V35.5663H604.625V25.9582H606.133V29.9026H607.598V20.8002H609.064V27.3742H610.529V11.5967H611.995V22.115H613.46V14.5297H614.926V3.00002H616.392V14.5297H617.857V22.115H619.323V11.5967H620.83V27.3742H622.296V20.8002H623.761V29.9026H625.227V25.9582H626.692V35.5663H628.158V33.0379H629.623V35.5663H631.089V38.6004H632.554V40.3198H634.062V42.6459H638.291V44.9721H641.096V42.6459H645.325V38.6004H646.791V40.3198H648.256V38.0947H649.722V33.0379H651.187V35.5663H652.653V25.9582H654.118V29.9026H655.584V20.8002H657.049V27.3742H658.557V11.5967H660.022V22.115H661.488V14.5297H662.953V3.00002H664.419V14.5297H665.884V22.115H667.35V11.5967H668.816V27.3742H670.281V20.8002H671.747V29.9026H673.254V25.9582H674.719V35.5663H676.185V33.0379H677.651V38.0947H679.116V33.0379H680.582V29.498H682.047V32.0265H683.513V33.0379H684.978V35.5663H686.486V38.0947H687.951V33.0379H689.417V35.5663H690.882V25.9582H692.348V29.9026H693.813V20.8002H695.279V27.3742H696.744V11.5967H698.21V22.115H699.717V14.5297H701.183V3.00002H702.648V14.5297H704.114V22.115H705.579V11.5967H707.045V27.3742H708.51V20.8002H709.976V29.9026H711.441V25.9582H712.949V35.5663H714.414V33.0379H715.88V35.5663H717.136V33.0379H718.602V35.5663H720.109V25.9582H721.574V29.9026H723.04V20.8002H724.505V27.3742H725.971V11.5967H727.437V22.115H728.902V14.5297H730.368V3.00002H731.833V14.5297H733.299V22.115H734.806V11.5967H736.272V27.3742H737.737V20.8002H739.203V29.9026H740.668V25.9582H742.134V35.5663H743.599V33.0379H745.065V38.0947H746.53V33.0379H748.038V29.498H749.503V32.0265H750.969V33.0379H752.434V35.5663H753.9V38.0947H755.365V33.0379H756.831V35.5663H758.296V25.9582H759.762V29.9026H761.269V20.8002H762.735V27.3742H764.2V11.5967H765.666V22.115H767.131V14.5297H768.597V3.00002H770.062V14.5297H771.528V22.115H772.994V11.5967H774.501V27.3742H775.966V20.8002H777.432V29.9026H778.897V25.9582H780.363V35.5663H781.829V33.0379H783.294V35.5663H784.76V38.6004H786.225V40.3198H787.691V38.6004H789.198V42.6459H793.427V44.9721H809.799V49.7255H793.427Z" fill="#E0E0E0"/>
</g>
</g>
</svg>
