<svg width="479" height="50" viewBox="0 0 479 50" fill="none" xmlns="http://www.w3.org/2000/svg">
<mask id="mask0" mask-type="alpha" maskUnits="userSpaceOnUse" x="179" y="0" width="284" height="50">
<rect x="179" width="284" height="50" fill="#C4C4C4"/>
</mask>
<g mask="url(#mask0)">
<g opacity="0.5">
<mask id="mask1" mask-type="alpha" maskUnits="userSpaceOnUse" x="195" y="0" width="449" height="50">
<rect x="195" width="449" height="50" fill="#C4C4C4"/>
</mask>
<g mask="url(#mask1)">
<path d="M56.1261 26.7514V28.0726H58.8368V30.3705H59.8029V29.3939H60.7423V30.3705H61.6816V32.0939H62.621V33.53H63.5603V32.0939H64.4997V37.5513H65.439V35.3109H66.3784V40.481H67.3177V36.747H68.257V45.7086H69.2232V39.7342H70.1626V44.0427H71.1019V50.5916H72.0412V44.0427H72.9806V39.7342H73.9199V45.7086H74.8593V36.747H75.7986V40.481H76.7379V35.3109H77.7042V37.5513H78.6435V32.0939H79.5828V33.53H80.5222V30.6577H81.4615V32.0939H82.4009V33.53H83.3402V34.1045H84.2795V35.5406H85.2189V33.53H86.1851V30.6577H87.1244V33.53H88.0638V32.0939H89.0031V37.5513H89.9424V35.3109H90.8818V40.481H91.8211V36.747H92.7605V45.7086H93.6998V39.7342H94.666V44.0427H95.6053V50.5916H96.5446V44.0427H97.484V39.7342H98.4233V45.7086H99.3627V36.747H100.302V40.481H101.241V35.3109H102.181V37.5513H103.12V32.0939H104.086V33.53H105.026V32.0939H105.831V33.53H106.77V32.0939H107.709V37.5513H108.676V35.3109H109.615V40.481H110.554V36.747H111.494V45.7086H112.433V39.7342H113.372V44.0427H114.312V50.5916H115.251V44.0427H116.19V39.7342H117.156V45.7086H118.096V36.747H119.035V40.481H119.974V35.3109H120.914V37.5513H121.853V32.0939H122.793V33.53H123.732V30.6577H124.671V32.0939H125.637V33.53H126.577V34.1045H127.516V35.5406H128.455V33.53H129.395V30.6577H130.334V33.53H131.273V32.0939H132.213V37.5513H133.152V35.3109H134.118V40.481H135.058V36.747H135.997V45.7086H136.936V39.7342H137.876V44.0427H138.815V50.5916H139.754V44.0427H140.694V39.7342H141.633V45.7086H142.572V36.747H143.539V40.481H144.478V35.3109H145.417V37.5513H146.357V32.0939H147.296V33.53H148.235V30.6577H149.175V29.3939H150.114V30.3705H151.053V28.0726H153.764V26.7514H155.562V28.0726H158.273V29.3939H159.239V30.3705H160.178V32.0939H161.118V33.53H162.057V32.0939H162.996V37.5513H163.936V35.3109H164.875V40.481H165.814V36.747H166.754V45.7086H167.72V39.7342H168.659V44.0427H169.599V50.5916H170.538V44.0427H171.477V39.7342H172.417V45.7086H173.356V36.747H174.295V40.481H175.235V35.3109H176.174V37.5513H177.14V32.0939H178.08V29.3939H179.019V30.3705H179.958V28.0726H182.669V26.7514H198.799V28.0726H201.509V29.3939H202.449V30.3705H203.388V32.0939H204.327V33.53H205.267V32.0939H206.206V37.5513H207.172V35.3109H208.112V40.481H209.051V36.747H209.99V45.7086H210.93V39.7342H211.869V44.0427H212.808V50.5916H213.748V44.0427H214.687V39.7342H215.626V45.7086H216.593V36.747H217.532V40.481H218.471V35.3109H219.411V37.5513H220.35V32.0939H221.289V29.3939H222.229V30.3705H223.168V28.0726H225.879V27.3681L227.677 26.7514H231.542H242.062V28.0726H244.773V30.3705H245.712V29.3939H246.652V30.3705H247.591V32.0939H248.53V33.53H249.47V32.0939H250.409V37.5513H251.348V35.3109H252.288V40.481H253.254V36.747H254.193V45.7086H255.132V39.7342H256.072V44.0427H257.011V50.5916H257.95V44.0427H258.89V39.7342H259.829V45.7086H260.768V36.747H261.735V40.481H262.674V35.3109H263.613V37.5513H264.553V32.0939H265.492V33.53H266.431V30.6577H267.371V32.0939H268.31V33.53H269.249V34.1045H270.189V35.5406H271.155V33.53H272.094V30.6577H273.034V33.53H273.973V32.0939H274.912V37.5513H275.852V35.3109H276.791V40.481H277.73V36.747H278.67V45.7086H279.636V39.7342H280.575V44.0427H281.515V50.5916H282.454V44.0427H283.393V39.7342H284.333V45.7086H285.272V36.747H286.211V40.481H287.151V35.3109H288.117V37.5513H289.056V32.0939H289.995V33.53H290.935V30.6577H291.874V29.3939H292.813V30.3705H293.753V28.0726H296.463V26.7514H341.498V28.0726H344.209V29.3939H345.148V30.3705H346.088V32.0939H347.027V33.53H347.966V32.0939H348.906V37.5513H349.845V35.3109H350.784V40.481H351.724V36.747H352.69V45.7086H353.629V39.7342H354.569V44.0427H355.508V50.5916H356.447V44.0427H357.387V39.7342H358.326V45.7086H359.265V36.747H360.205V40.481H361.171V35.3109H362.11V37.5513H363.049V32.0939H363.989V29.3939H364.928V30.3705H365.867V28.0726H368.578V26.7514H383.661L383.93 24.0514H368.578V22.7301H365.867V20.4323H364.928V21.4089H363.989V18.7089H363.049V13.2515H362.11V15.4919H361.171V10.3218H360.205V14.0558H359.265V5.09414H358.326V11.0686H357.387V6.76008H356.447V0.211212H355.508V6.76008H354.569V11.0686H353.629V5.09414H352.69V14.0558H351.724V10.3218H350.784V15.4919H349.845V13.2515H348.906V18.7089H347.966V17.2727H347.027V18.7089H346.088V20.4323H345.148V21.4089H344.209V22.7301H341.498V24.0514H296.463V22.7301H293.753V20.4323H292.813V21.4089H291.874V20.1451H290.935V17.2727H289.995V18.7089H289.056V13.2515H288.117V15.4919H287.151V10.3218H286.211V14.0558H285.272V5.09414H284.333V11.0686H283.393V6.76008H282.454V0.211212H281.515V6.76008H280.575V11.0686H279.636V5.09414H278.67V14.0558H277.73V10.3218H276.791V15.4919H275.852V13.2515H274.912V18.7089H273.973V17.2727H273.034V20.1451H272.094V17.2727H271.155V15.2621H270.189V16.6983H269.249V17.2727H268.31V18.7089H267.371V20.1451H266.431V17.2727H265.492V18.7089H264.553V13.2515H263.613V15.4919H262.674V10.3218H261.735V14.0558H260.768V5.09414H259.829V11.0686H258.89V6.76008H257.95V0.211212H257.011V6.76008H256.072V11.0686H255.132V5.09414H254.193V14.0558H253.254V10.3218H252.288V15.4919H251.348V13.2515H250.409V18.7089H249.47V17.2727H248.53V18.7089H247.591V20.4323H246.652V21.4089H245.712V20.4323H244.773V22.7301H242.062V24.0514H231.542H227.677H225.879V22.7301H223.168V20.4323H222.229V21.4089H221.289V18.7089H220.35V13.2515H219.411V15.4919H218.471V10.3218H217.532V14.0558H216.593V5.09414H215.626V11.0686H214.687V6.76008H213.748V0.211212H212.808V6.76008H211.869V11.0686H210.93V5.09414H209.99V14.0558H209.051V10.3218H208.112V15.4919H207.172V13.2515H206.206V18.7089H205.267V17.2727H204.327V18.7089H203.388V20.4323H202.449V21.4089H201.509V22.7301H198.799V24.0514H182.669V22.7301H179.958V20.4323H179.019V21.4089H178.08V18.7089H177.14V13.2515H176.174V15.4919H175.235V10.3218H174.295V14.0558H173.356V5.09414H172.417V11.0686H171.477V6.76008H170.538V0.211212H169.599V6.76008H168.659V11.0686H167.72V5.09414H166.754V14.0558H165.814V10.3218H164.875V15.4919H163.936V13.2515H162.996V18.7089H162.057V17.2727H161.118V18.7089H160.178V20.4323H159.239V21.4089H158.273V22.7301H155.562V24.0514H153.764V22.7301H151.053V20.4323H150.114V21.4089H149.175V20.1451H148.235V17.2727H147.296V18.7089H146.357V13.2515H145.417V15.4919H144.478V10.3218H143.539V14.0558H142.572V5.09414H141.633V11.0686H140.694V6.76008H139.754V0.211212H138.815V6.76008H137.876V11.0686H136.936V5.09414H135.997V14.0558H135.058V10.3218H134.118V15.4919H133.152V13.2515H132.213V18.7089H131.273V17.2727H130.334V20.1451H129.395V17.2727H128.455V15.2621H127.516V16.6983H126.577V17.2727H125.637V18.7089H124.671V20.1451H123.732V17.2727H122.793V18.7089H121.853V13.2515H120.914V15.4919H119.974V10.3218H119.035V14.0558H118.096V5.09414H117.156V11.0686H116.19V6.76008H115.251V0.211212H114.312V6.76008H113.372V11.0686H112.433V5.09414H111.494V14.0558H110.554V10.3218H109.615V15.4919H108.676V13.2515H107.709V18.7089H106.77V17.2727H105.831V18.7089H105.026V17.2727H104.086V18.7089H103.12V13.2515H102.181V15.4919H101.241V10.3218H100.302V14.0558H99.3627V5.09414H98.4233V11.0686H97.484V6.76008H96.5446V0.211212H95.6053V6.76008H94.666V11.0686H93.6998V5.09414H92.7605V14.0558H91.8211V10.3218H90.8818V15.4919H89.9424V13.2515H89.0031V18.7089H88.0638V17.2727H87.1244V20.1451H86.1851V17.2727H85.2189V15.2621H84.2795V16.6983H83.3402V17.2727H82.4009V18.7089H81.4615V20.1451H80.5222V17.2727H79.5828V18.7089H78.6435V13.2515H77.7042V15.4919H76.7379V10.3218H75.7986V14.0558H74.8593V5.09414H73.9199V11.0686H72.9806V6.76008H72.0412V0.211212H71.1019V6.76008H70.1626V11.0686H69.2232V5.09414H68.257V14.0558H67.3177V10.3218H66.3784V15.4919H65.439V13.2515H64.4997V18.7089H63.5603V17.2727H62.621V18.7089H61.6816V20.4323H60.7423V21.4089H59.8029V20.4323H58.8368V22.7301H56.1261V24.0514H45.6323V26.7514H56.1261Z" fill="#E0E0E0"/>
<path d="M730.304 26.7523V28.0735H727.594V30.3714H726.627V29.3948H725.688V30.3714H724.749V32.0948H723.809V33.5309H722.87V32.0948H721.931V37.5522H720.991V35.3118H720.052V40.4819H719.113V36.7479H718.173V45.7095H717.207V39.7351H716.268V44.0436H715.329V50.5925H714.389V44.0436H713.45V39.7351H712.51V45.7095H711.571V36.7479H710.632V40.4819H709.692V35.3118H708.726V37.5522H707.787V32.0948H706.848V33.5309H705.908V30.6586H704.969V32.0948H704.03V33.5309H703.09V34.1054H702.151V35.5416H701.212V33.5309H700.245V30.6586H699.306V33.5309H698.367V32.0948H697.427V37.5522H696.488V35.3118H695.549V40.4819H694.609V36.7479H693.67V45.7095H692.731V39.7351H691.764V44.0436H690.825V50.5925H689.886V44.0436H688.946V39.7351H688.007V45.7095H687.068V36.7479H686.128V40.4819H685.189V35.3118H684.25V37.5522H683.31V32.0948H682.344V33.5309H681.405V32.0948H680.6V33.5309H679.66V32.0948H678.721V37.5522H677.755V35.3118H676.816V40.4819H675.876V36.7479H674.937V45.7095H673.997V39.7351H673.058V44.0436H672.119V50.5925H671.18V44.0436H670.24V39.7351H669.274V45.7095H668.335V36.7479H667.395V40.4819H666.456V35.3118H665.517V37.5522H664.577V32.0948H663.638V33.5309H662.699V30.6586H661.759V32.0948H660.793V33.5309H659.854V34.1054H658.914V35.5416H657.975V33.5309H657.036V30.6586H656.096V33.5309H655.157V32.0948H654.218V37.5522H653.278V35.3118H652.312V40.4819H651.373V36.7479H650.433V45.7095H649.494V39.7351H648.555V44.0436H647.615V50.5925H646.676V44.0436H645.737V39.7351H644.797V45.7095H643.858V36.7479H642.892V40.4819H641.953V35.3118H641.013V37.5522H640.074V32.0948H639.134V33.5309H638.195V30.6586H637.256V29.3948H636.316V30.3714H635.377V28.0735H632.666V26.7523H630.868V28.0735H628.158V29.3948H627.191V30.3714H626.252V32.0948H625.313V33.5309H624.373V32.0948H623.434V37.5522H622.495V35.3118H621.555V40.4819H620.616V36.7479H619.677V45.7095H618.711V39.7351H617.771V44.0436H616.832V50.5925H615.892V44.0436H614.953V39.7351H614.014V45.7095H613.074V36.7479H612.135V40.4819H611.196V35.3118H610.256V37.5522H609.29V32.0948H608.351V29.3948H607.412V30.3714H606.472V28.0735H603.762V26.7523H587.632V28.0735H584.921V29.3948H583.982V30.3714H583.042V32.0948H582.103V33.5309H581.164V32.0948H580.224V37.5522H579.258V35.3118H578.319V40.4819H577.379V36.7479H576.44V45.7095H575.501V39.7351H574.561V44.0436H573.622V50.5925H572.683V44.0436H571.743V39.7351H570.804V45.7095H569.838V36.7479H568.899V40.4819H567.959V35.3118H567.02V37.5522H566.081V32.0948H565.141V29.3948H564.202V30.3714H563.262V28.0735H560.552V26.7523H558.754H554.889H544.368V28.0735H541.658V30.3714H540.718V29.3948H539.779V30.3714H538.84V32.0948H537.9V33.5309H536.961V32.0948H536.022V37.5522H535.082V35.3118H534.143V40.4819H533.177V36.7479H532.237V45.7095H531.298V39.7351H530.359V44.0436H529.419V50.5925H528.48V44.0436H527.541V39.7351H526.601V45.7095H525.662V36.7479H524.696V40.4819H523.756V35.3118H522.817V37.5522H521.878V32.0948H520.938V33.5309H519.999V30.6586H519.06V32.0948H518.12V33.5309H517.181V34.1054H516.242V35.5416H515.275V33.5309H514.336V30.6586H513.397V33.5309H512.457V32.0948H511.518V37.5522H510.579V35.3118H509.639V40.4819H508.7V36.7479H507.761V45.7095H506.795V39.7351H505.855V44.0436H504.916V50.5925H503.977V44.0436H503.037V39.7351H502.098V45.7095H501.159V36.7479H500.219V40.4819H499.28V35.3118H498.314V37.5522H497.374V32.0948H496.435V33.5309H495.496V30.6586H494.556V29.3948H493.617V30.3714H492.678V28.0735H489.967V26.7523H444.932V28.0735H442.222V29.3948H441.282V30.3714H440.343V32.0948H439.403V33.5309H438.464V32.0948H437.525V37.5522H436.585V35.3118H435.646V40.4819H434.707V36.7479H433.741V45.7095H432.801V39.7351H431.862V44.0436H430.923V50.5925H429.983V44.0436H429.044V39.7351H428.105V45.7095H427.165V36.7479H426.226V40.4819H425.26V35.3118H424.32V37.5522H423.381V32.0948H422.442V29.3948H421.502V30.3714H420.563V28.0735H417.852V26.7523H402.769L402.501 24.0523H417.852V22.731H420.563V20.4332H421.502V21.4098H422.442V18.7098H423.381V13.2524H424.32V15.4928H425.26V10.3227H426.226V14.0567H427.165V5.09506H428.105V11.0695H429.044V6.761H429.983V0.212132H430.923V6.761H431.862V11.0695H432.801V5.09506H433.741V14.0567H434.707V10.3227H435.646V15.4928H436.585V13.2524H437.525V18.7098H438.464V17.2737H439.403V18.7098H440.343V20.4332H441.282V21.4098H442.222V22.731H444.932V24.0523H489.967V22.731H492.678V20.4332H493.617V21.4098H494.556V20.146H495.496V17.2737H496.435V18.7098H497.374V13.2524H498.314V15.4928H499.28V10.3227H500.219V14.0567H501.159V5.09506H502.098V11.0695H503.037V6.761H503.977V0.212132H504.916V6.761H505.855V11.0695H506.795V5.09506H507.761V14.0567H508.7V10.3227H509.639V15.4928H510.579V13.2524H511.518V18.7098H512.457V17.2737H513.397V20.146H514.336V17.2737H515.275V15.263H516.242V16.6992H517.181V17.2737H518.12V18.7098H519.06V20.146H519.999V17.2737H520.938V18.7098H521.878V13.2524H522.817V15.4928H523.756V10.3227H524.696V14.0567H525.662V5.09506H526.601V11.0695H527.541V6.761H528.48V0.212132H529.419V6.761H530.359V11.0695H531.298V5.09506H532.237V14.0567H533.177V10.3227H534.143V15.4928H535.082V13.2524H536.022V18.7098H536.961V17.2737H537.9V18.7098H538.84V20.4332H539.779V21.4098H540.718V20.4332H541.658V22.731H544.368V24.0523H554.889H558.754H560.552V22.731H563.262V20.4332H564.202V21.4098H565.141V18.7098H566.081V13.2524H567.02V15.4928H567.959V10.3227H568.899V14.0567H569.838V5.09506H570.804V11.0695H571.743V6.761H572.683V0.212132H573.622V6.761H574.561V11.0695H575.501V5.09506H576.44V14.0567H577.379V10.3227H578.319V15.4928H579.258V13.2524H580.224V18.7098H581.164V17.2737H582.103V18.7098H583.042V20.4332H583.982V21.4098H584.921V22.731H587.632V24.0523H603.762V22.731H606.472V20.4332H607.412V21.4098H608.351V18.7098H609.29V13.2524H610.256V15.4928H611.196V10.3227H612.135V14.0567H613.074V5.09506H614.014V11.0695H614.953V6.761H615.892V0.212132H616.832V6.761H617.771V11.0695H618.711V5.09506H619.677V14.0567H620.616V10.3227H621.555V15.4928H622.495V13.2524H623.434V18.7098H624.373V17.2737H625.313V18.7098H626.252V20.4332H627.191V21.4098H628.158V22.731H630.868V24.0523H632.666V22.731H635.377V20.4332H636.316V21.4098H637.256V20.146H638.195V17.2737H639.134V18.7098H640.074V13.2524H641.013V15.4928H641.953V10.3227H642.892V14.0567H643.858V5.09506H644.797V11.0695H645.737V6.761H646.676V0.212132H647.615V6.761H648.555V11.0695H649.494V5.09506H650.433V14.0567H651.373V10.3227H652.312V15.4928H653.278V13.2524H654.218V18.7098H655.157V17.2737H656.096V20.146H657.036V17.2737H657.975V15.263H658.914V16.6992H659.854V17.2737H660.793V18.7098H661.759V20.146H662.699V17.2737H663.638V18.7098H664.577V13.2524H665.517V15.4928H666.456V10.3227H667.395V14.0567H668.335V5.09506H669.274V11.0695H670.24V6.761H671.18V0.212132H672.119V6.761H673.058V11.0695H673.997V5.09506H674.937V14.0567H675.876V10.3227H676.816V15.4928H677.755V13.2524H678.721V18.7098H679.66V17.2737H680.6V18.7098H681.405V17.2737H682.344V18.7098H683.31V13.2524H684.25V15.4928H685.189V10.3227H686.128V14.0567H687.068V5.09506H688.007V11.0695H688.946V6.761H689.886V0.212132H690.825V6.761H691.764V11.0695H692.731V5.09506H693.67V14.0567H694.609V10.3227H695.549V15.4928H696.488V13.2524H697.427V18.7098H698.367V17.2737H699.306V20.146H700.245V17.2737H701.212V15.263H702.151V16.6992H703.09V17.2737H704.03V18.7098H704.969V20.146H705.908V17.2737H706.848V18.7098H707.787V13.2524H708.726V15.4928H709.692V10.3227H710.632V14.0567H711.571V5.09506H712.51V11.0695H713.45V6.761H714.389V0.212132H715.329V6.761H716.268V11.0695H717.207V5.09506H718.173V14.0567H719.113V10.3227H720.052V15.4928H720.991V13.2524H721.931V18.7098H722.87V17.2737H723.809V18.7098H724.749V20.4332H725.688V21.4098H726.627V20.4332H727.594V22.731H730.304V24.0523H740.798V26.7523H730.304Z" fill="#E0E0E0"/>
</g>
</g>
</g>
<mask id="mask2" mask-type="alpha" maskUnits="userSpaceOnUse" x="18" y="0" width="233" height="50">
<rect x="18" width="233" height="50" fill="#C4C4C4"/>
</mask>
<g mask="url(#mask2)">
<g opacity="0.5">
<mask id="mask3" mask-type="alpha" maskUnits="userSpaceOnUse" x="56" y="-1" width="70" height="53">
<rect x="56" y="-1" width="70" height="53" fill="#C4C4C4"/>
</mask>
<g mask="url(#mask3)">
<path d="M-118.506 27.3963V28.7176H-115.796V31.0154H-114.829V30.0389H-113.89V31.0154H-112.951V32.7388H-112.011V34.175H-111.072V32.7388H-110.133V38.1962H-109.193V35.9558H-108.254V41.126H-107.315V37.392H-106.375V46.3536H-105.409V40.3792H-104.47V44.6876H-103.53V51.2365H-102.591V44.6876H-101.652V40.3792H-100.712V46.3536H-99.7731V37.392H-98.8337V41.126H-97.8944V35.9558H-96.9282V38.1962H-95.9888V32.7388H-95.0495V34.175H-94.1102V31.3027H-93.1708V32.7388H-92.2314V34.175H-91.2921V34.7494H-90.3528V36.1856H-89.4134V34.175H-88.4473V31.3027H-87.5079V34.175H-86.5686V32.7388H-85.6292V38.1962H-84.6899V35.9558H-83.7505V41.126H-82.8112V37.392H-81.8719V46.3536H-80.9325V40.3792H-79.9664V44.6876H-79.027V51.2365H-78.0877V44.6876H-77.1483V40.3792H-76.209V46.3536H-75.2696V37.392H-74.3303V41.126H-73.391V35.9558H-72.4516V38.1962H-71.5123V32.7388H-70.5461V34.175H-69.6068V32.7388H-68.8016V34.175H-67.8623V32.7388H-66.9229V38.1962H-65.9568V35.9558H-65.0175V41.126H-64.0781V37.392H-63.1388V46.3536H-62.1994V40.3792H-61.2601V44.6876H-60.3207V51.2365H-59.3814V44.6876H-58.442V40.3792H-57.4758V46.3536H-56.5365V37.392H-55.5972V41.126H-54.6578V35.9558H-53.7185V38.1962H-52.7791V32.7388H-51.8398V34.175H-50.9005V31.3027H-49.9611V32.7388H-48.9949V34.175H-48.0556V34.7494H-47.1162V36.1856H-46.1769V34.175H-45.2376V31.3027H-44.2982V34.175H-43.3589V32.7388H-42.4195V38.1962H-41.4802V35.9558H-40.514V41.126H-39.5747V37.392H-38.6353V46.3536H-37.696V40.3792H-36.7567V44.6876H-35.8173V51.2365H-34.878V44.6876H-33.9386V40.3792H-32.9993V46.3536H-32.0599V37.392H-31.0938V41.126H-30.1544V35.9558H-29.2151V38.1962H-28.2757V32.7388H-27.3364V34.175H-26.397V31.3027H-25.4577V30.0389H-24.5184V31.0154H-23.579V28.7176H-20.8684V27.3963H-19.0702V28.7176H-16.3595V30.0389H-15.3933V31.0154H-14.454V32.7388H-13.5146V34.175H-12.5753V32.7388H-11.636V38.1962H-10.6966V35.9558H-9.75728V41.126H-8.81795V37.392H-7.8786V46.3536H-6.91241V40.3792H-5.97307V44.6876H-5.03374V51.2365H-4.09438V44.6876H-3.15503V40.3792H-2.2157V46.3536H-1.27635V37.392H-0.337006V41.126H0.602325V35.9558H1.54167V38.1962H2.50784V32.7388H3.4472V30.0389H4.38654V31.0154H5.32588V28.7176H8.03656V27.3963H24.1664V28.7176H26.8771V30.0389H27.8164V31.0154H28.7558V32.7388H29.6951V34.175H30.6344V32.7388H31.5738V38.1962H32.54V35.9558H33.4793V41.126H34.4187V37.392H35.358V46.3536H36.2973V40.3792H37.2367V44.6876H38.176V51.2365H39.1154V44.6876H40.0547V40.3792H40.994V46.3536H41.9602V37.392H42.8996V41.126H43.8389V35.9558H44.7782V38.1962H45.7176V32.7388H46.6569V30.0389H47.5963V31.0154H48.5356V28.7176H51.2463V27.3963H53.0445H56.9092H67.4298V28.7176H70.1405V31.0154H71.0798V30.0389H72.0192V31.0154H72.9585V32.7388H73.8979V34.175H74.8372V32.7388H75.7766V38.1962H76.7159V35.9558H77.6552V41.126H78.6214V37.392H79.5608V46.3536H80.5001V40.3792H81.4395V44.6876H82.3788V51.2365H83.3181V44.6876H84.2575V40.3792H85.1968V46.3536H86.1362V37.392H87.1023V41.126H88.0417V35.9558H88.981V38.1962H89.9204V32.7388H90.8597V34.175H91.7991V31.3027H92.7384V32.7388H93.6777V34.175H94.6171V34.7494H95.5564V36.1856H96.5226V34.175H97.4619V31.3027H98.4013V34.175H99.3406V32.7388H100.28V38.1962H101.219V35.9558H102.159V41.126H103.098V37.392H104.037V46.3536H105.004V40.3792H105.943V44.6876H106.882V51.2365H107.822V44.6876H108.761V40.3792H109.7V46.3536H110.64V37.392H111.579V41.126H112.518V35.9558H113.484V38.1962H114.424V32.7388H115.363V34.175H116.302V31.3027H117.242V30.0389H118.181V31.0154H119.12V28.7176H121.831V27.3963H166.866V28.7176H169.577V30.0389H170.516V31.0154H171.455V32.7388H172.395V34.175H173.334V32.7388H174.273V38.1962H175.213V35.9558H176.152V41.126H177.091V37.392H178.058V46.3536H178.997V40.3792H179.936V44.6876H180.876V51.2365H181.815V44.6876H182.754V40.3792H183.694V46.3536H184.633V37.392H185.572V41.126H186.538V35.9558H187.478V38.1962H188.417V32.7388H189.356V30.0389H190.296V31.0154H191.235V28.7176H193.946V27.3963H209.029L209.297 24.6964H193.946V23.3751H191.235V21.0772H190.296V22.0538H189.356V19.3539H188.417V13.8965H187.478V16.1369H186.538V10.9667H185.572V14.7007H184.633V5.7391H183.694V11.7135H182.754V7.40504H181.815V0.856174H180.876V7.40504H179.936V11.7135H178.997V5.7391H178.058V14.7007H177.091V10.9667H176.152V16.1369H175.213V13.8965H174.273V19.3539H173.334V17.9177H172.395V19.3539H171.455V21.0772H170.516V22.0538H169.577V23.3751H166.866V24.6964H121.831V23.3751H119.12V21.0772H118.181V22.0538H117.242V20.79H116.302V17.9177H115.363V19.3539H114.424V13.8965H113.484V16.1369H112.518V10.9667H111.579V14.7007H110.64V5.7391H109.7V11.7135H108.761V7.40504H107.822V0.856174H106.882V7.40504H105.943V11.7135H105.004V5.7391H104.037V14.7007H103.098V10.9667H102.159V16.1369H101.219V13.8965H100.28V19.3539H99.3406V17.9177H98.4013V20.79H97.4619V17.9177H96.5226V15.9071H95.5564V17.3432H94.6171V17.9177H93.6777V19.3539H92.7384V20.79H91.7991V17.9177H90.8597V19.3539H89.9204V13.8965H88.981V16.1369H88.0417V10.9667H87.1023V14.7007H86.1362V5.7391H85.1968V11.7135H84.2575V7.40504H83.3181V0.856174H82.3788V7.40504H81.4395V11.7135H80.5001V5.7391H79.5608V14.7007H78.6214V10.9667H77.6552V16.1369H76.7159V13.8965H75.7766V19.3539H74.8372V17.9177H73.8979V19.3539H72.9585V21.0772H72.0192V22.0538H71.0798V21.0772H70.1405V23.3751H67.4298V24.6964H56.9092H53.0445H51.2463V23.3751H48.5356V21.0772H47.5963V22.0538H46.6569V19.3539H45.7176V13.8965H44.7782V16.1369H43.8389V10.9667H42.8996V14.7007H41.9602V5.7391H40.994V11.7135H40.0547V7.40504H39.1154V0.856174H38.176V7.40504H37.2367V11.7135H36.2973V5.7391H35.358V14.7007H34.4187V10.9667H33.4793V16.1369H32.54V13.8965H31.5738V19.3539H30.6344V17.9177H29.6951V19.3539H28.7558V21.0772H27.8164V22.0538H26.8771V23.3751H24.1664V24.6964H8.03656V23.3751H5.32588V21.0772H4.38654V22.0538H3.4472V19.3539H2.50784V13.8965H1.54167V16.1369H0.602325V10.9667H-0.337006V14.7007H-1.27635V5.7391H-2.2157V11.7135H-3.15503V7.40504H-4.09438V0.856174H-5.03374V7.40504H-5.97307V11.7135H-6.91241V5.7391H-7.8786V14.7007H-8.81795V10.9667H-9.75728V16.1369H-10.6966V13.8965H-11.636V19.3539H-12.5753V17.9177H-13.5146V19.3539H-14.454V21.0772H-15.3933V22.0538H-16.3595V23.3751H-19.0702V24.6964H-20.8684V23.3751H-23.579V21.0772H-24.5184V22.0538H-25.4577V20.79H-26.397V17.9177H-27.3364V19.3539H-28.2757V13.8965H-29.2151V16.1369H-30.1544V10.9667H-31.0938V14.7007H-32.0599V5.7391H-32.9993V11.7135H-33.9386V7.40504H-34.878V0.856174H-35.8173V7.40504H-36.7567V11.7135H-37.696V5.7391H-38.6353V14.7007H-39.5747V10.9667H-40.514V16.1369H-41.4802V13.8965H-42.4195V19.3539H-43.3589V17.9177H-44.2982V20.79H-45.2376V17.9177H-46.1769V15.9071H-47.1162V17.3432H-48.0556V17.9177H-48.9949V19.3539H-49.9611V20.79H-50.9005V17.9177H-51.8398V19.3539H-52.7791V13.8965H-53.7185V16.1369H-54.6578V10.9667H-55.5972V14.7007H-56.5365V5.7391H-57.4758V11.7135H-58.442V7.40504H-59.3814V0.856174H-60.3207V7.40504H-61.2601V11.7135H-62.1994V5.7391H-63.1388V14.7007H-64.0781V10.9667H-65.0175V16.1369H-65.9568V13.8965H-66.9229V19.3539H-67.8623V17.9177H-68.8016V19.3539H-69.6068V17.9177H-70.5461V19.3539H-71.5123V13.8965H-72.4516V16.1369H-73.391V10.9667H-74.3303V14.7007H-75.2696V5.7391H-76.209V11.7135H-77.1483V7.40504H-78.0877V0.856174H-79.027V7.40504H-79.9664V11.7135H-80.9325V5.7391H-81.8719V14.7007H-82.8112V10.9667H-83.7505V16.1369H-84.6899V13.8965H-85.6292V19.3539H-86.5686V17.9177H-87.5079V20.79H-88.4473V17.9177H-89.4134V15.9071H-90.3528V17.3432H-91.2921V17.9177H-92.2314V19.3539H-93.1708V20.79H-94.1102V17.9177H-95.0495V19.3539H-95.9888V13.8965H-96.9282V16.1369H-97.8944V10.9667H-98.8337V14.7007H-99.7731V5.7391H-100.712V11.7135H-101.652V7.40504H-102.591V0.856174H-103.53V7.40504H-104.47V11.7135H-105.409V5.7391H-106.375V14.7007H-107.315V10.9667H-108.254V16.1369H-109.193V13.8965H-110.133V19.3539H-111.072V17.9177H-112.011V19.3539H-112.951V21.0772H-113.89V22.0538H-114.829V21.0772H-115.796V23.3751H-118.506V24.6964H-129V27.3963H-118.506Z" fill="#E0E0E0"/>
</g>
</g>
</g>
<path d="M0 24H479V27H0V24Z" fill="#EFEFEF"/>
</svg>
