<svg width="50" height="50" viewBox="0 0 50 50" fill="none" xmlns="http://www.w3.org/2000/svg">
<path d="M35.4168 43.75V39.5833C35.4168 37.3732 34.5389 35.2536 32.9761 33.6908C31.4132 32.128 29.2936 31.25 27.0835 31.25H10.4168C8.20669 31.25 6.08708 32.128 4.52427 33.6908C2.96147 35.2536 2.0835 37.3732 2.0835 39.5833V43.75" stroke="#F13F00" stroke-width="2.5" stroke-linecap="round" stroke-linejoin="round"/>
<path d="M18.7498 22.9167C23.3522 22.9167 27.0832 19.1857 27.0832 14.5833C27.0832 9.98096 23.3522 6.25 18.7498 6.25C14.1475 6.25 10.4165 9.98096 10.4165 14.5833C10.4165 19.1857 14.1475 22.9167 18.7498 22.9167Z" stroke="#F13F00" stroke-width="2.5" stroke-linecap="round" stroke-linejoin="round"/>
<path d="M47.9165 43.7499V39.5833C47.9151 37.7369 47.3006 35.9432 46.1693 34.4839C45.0381 33.0246 43.4543 31.9824 41.6665 31.5208" stroke="#F13F00" stroke-width="2.5" stroke-linecap="round" stroke-linejoin="round"/>
<path d="M33.3335 6.52075C35.126 6.97971 36.7148 8.02221 37.8494 9.4839C38.984 10.9456 39.5998 12.7433 39.5998 14.5937C39.5998 16.444 38.984 18.2418 37.8494 19.7034C36.7148 21.1651 35.126 22.2076 33.3335 22.6666" stroke="#F13F00" stroke-width="2.5" stroke-linecap="round" stroke-linejoin="round"/>
</svg>
